#define iconfile_width 15
#define iconfile_height 15
static unsigned char iconfile_bits[] = {
   0x00, 0x00, 0x0c, 0x18, 0x12, 0x24, 0xf1, 0x47, 0x13, 0x66, 0x5a, 0x38,
   0x0c, 0x19, 0x24, 0x12, 0x36, 0x32, 0x26, 0x32, 0x06, 0x30, 0x0e, 0x30,
   0x0e, 0x3c, 0xf4, 0x17, 0x00, 0x00 };
